<svg xmlns="http://www.w3.org/2000/svg" version="1.1" xmlns:xlink="http://www.w3.org/1999/xlink" xmlns:svgjs="http://svgjs.dev/svgjs" width="1000" height="623" viewBox="0 0 1000 623"><g transform="matrix(1,0,0,1,-0.6060606060606233,0.2522267206477409)"><svg viewBox="0 0 396 247" data-background-color="#ffffff" preserveAspectRatio="xMidYMid meet" height="623" width="1000" xmlns="http://www.w3.org/2000/svg" xmlns:xlink="http://www.w3.org/1999/xlink"><g id="tight-bounds" transform="matrix(1,0,0,1,0.2400000000000091,-0.09999999999999432)"><svg viewBox="0 0 395.52 247.2" height="247.2" width="395.52"><g><svg></svg></g><g><svg viewBox="0 0 395.52 247.2" height="247.2" width="395.52"><mask id="13d42a00-893f-4622-bc6a-0296d6c5a94b"><rect width="395.52" height="247.2" fill="white"></rect><g transform="matrix(1,0,0,1,129.38129032258064,37.08)" id="clone"><svg viewBox="0 0 136.7574193548387 173.04" height="173.04" width="136.7574193548387"><g><svg viewBox="0 0 136.7574193548387 173.04" height="173.04" width="136.7574193548387"><g><svg viewBox="0 0 136.7574193548387 173.04" height="173.04" width="136.7574193548387"><g><svg viewBox="0 0 136.7574193548387 173.04" height="173.04" width="136.7574193548387"><g id="SvgjsG1006"><svg viewBox="0 0 136.7574193548387 173.04" height="173.04" width="136.7574193548387" id="SvgjsSvg1005"><g><svg viewBox="0 0 136.7574193548387 173.04" height="173.04" width="136.7574193548387"><g transform="matrix(1,0,0,1,0,0)"><svg width="136.7574193548387" viewBox="-0.34999999999999964 -39.5 35.3 44.4" height="173.04" data-palette-color="#ee3e38"><path d="M14.6 0.4L14.6 0.4Q11.85 0.4 9.05 0.23 6.25 0.05 4.15-0.5L4.15-0.5 4.15-34.15Q5.25-34.35 6.5-34.52 7.75-34.7 9.05-34.8 10.35-34.9 11.63-34.95 12.9-35 14.05-35L14.05-35Q17.2-35 19.9-34.52 22.6-34.05 24.58-32.95 26.55-31.85 27.65-30.05 28.75-28.25 28.75-25.6L28.75-25.6Q28.75-23.15 27.58-21.4 26.4-19.65 24.3-18.6L24.3-18.6Q27.45-17.55 28.95-15.5 30.45-13.45 30.45-10.3L30.45-10.3Q30.45-4.95 26.55-2.27 22.65 0.4 14.6 0.4ZM15.9-15.6L10.35-15.6 10.35-5.05Q11.4-4.95 12.6-4.9 13.8-4.85 14.8-4.85L14.8-4.85Q16.75-4.85 18.43-5.1 20.1-5.35 21.33-5.98 22.55-6.6 23.28-7.65 24-8.7 24-10.35L24-10.35Q24-13.3 21.85-14.45 19.7-15.6 15.9-15.6L15.9-15.6ZM10.35-29.65L10.35-20.55 14.8-20.55Q18.4-20.55 20.45-21.58 22.5-22.6 22.5-25.25L22.5-25.25Q22.5-27.75 20.38-28.8 18.25-29.85 14.85-29.85L14.85-29.85Q13.4-29.85 12.28-29.8 11.15-29.75 10.35-29.65L10.35-29.65Z" opacity="1" transform="matrix(1,0,0,1,0,0)" fill="black" class="wordmark-text-0" id="SvgjsPath1004" stroke-width="8" stroke="black" stroke-linejoin="round"></path></svg></g></svg></g></svg></g></svg></g></svg></g></svg></g></svg></g></mask><g mask="url(#13d42a00-893f-4622-bc6a-0296d6c5a94b)"><g><path d="M183.774 215.284v0c-9.496 0-19.079-0.294-28.748-0.88-9.669-0.622-18.13-1.882-25.382-3.782v0-174.303c3.799-0.691 7.856-1.33 12.173-1.917 4.317-0.622 8.72-1.105 13.209-1.45 4.489-0.345 8.944-0.604 13.364-0.777 4.386-0.173 8.564-0.259 12.535-0.259v0c10.878 0 20.979 0.829 30.303 2.486 9.324 1.623 17.404 4.334 24.242 8.133 6.803 3.799 12.104 8.806 15.902 15.021 3.799 6.216 5.698 13.899 5.698 23.051v0c0 8.461-2.02 15.712-6.061 21.755-4.075 6.043-9.738 10.878-16.99 14.504v0c10.878 3.626 18.907 8.979 24.087 16.058 5.18 7.079 7.77 16.058 7.77 26.935v0c0 18.475-6.734 32.34-20.202 41.595-13.468 9.22-34.101 13.83-61.9 13.83zM190.508 132.406h-28.748v54.648c3.626 0.345 7.511 0.604 11.654 0.777 4.144 0.173 7.943 0.259 11.396 0.259v0c6.734 0 13.002-0.432 18.803-1.295 5.767-0.863 10.774-2.383 15.022-4.559 4.213-2.141 7.58-5.024 10.101-8.65 2.486-3.626 3.73-8.288 3.729-13.986v0c0-10.187-3.712-17.266-11.136-21.237-7.425-3.971-17.698-5.957-30.821-5.957zM161.76 59.628v47.137h23.05c12.432 0 22.187-1.778 29.267-5.335 7.079-3.522 10.619-9.859 10.618-19.01v0c0-8.633-3.66-14.763-10.981-18.389-7.355-3.626-16.904-5.439-28.645-5.439v0c-5.007 0-9.445 0.086-13.312 0.259-3.902 0.173-7.235 0.432-9.997 0.777z" fill="#ee3e38" fill-rule="nonzero" stroke="none" stroke-width="1" stroke-linecap="butt" stroke-linejoin="miter" stroke-miterlimit="10" stroke-dasharray="" stroke-dashoffset="0" font-family="none" font-weight="none" font-size="none" text-anchor="none" style="mix-blend-mode: normal" data-fill-palette-color="tertiary"></path></g></g><g transform="matrix(1,0,0,1,129.38129032258064,37.08)"><svg viewBox="0 0 136.7574193548387 173.04" height="173.04" width="136.7574193548387"><g><svg viewBox="0 0 136.7574193548387 173.04" height="173.04" width="136.7574193548387"><g><svg viewBox="0 0 136.7574193548387 173.04" height="173.04" width="136.7574193548387"><g><svg viewBox="0 0 136.7574193548387 173.04" height="173.04" width="136.7574193548387"><g id="textblocktransform"><svg viewBox="0 0 136.7574193548387 173.04" height="173.04" width="136.7574193548387" id="textblock"><g><svg viewBox="0 0 136.7574193548387 173.04" height="173.04" width="136.7574193548387"><g transform="matrix(1,0,0,1,0,0)"><svg width="136.7574193548387" viewBox="-0.34999999999999964 -39.5 35.3 44.4" height="173.04" data-palette-color="#ee3e38"><path d="M14.6 0.4L14.6 0.4Q11.85 0.4 9.05 0.23 6.25 0.05 4.15-0.5L4.15-0.5 4.15-34.15Q5.25-34.35 6.5-34.52 7.75-34.7 9.05-34.8 10.35-34.9 11.63-34.95 12.9-35 14.05-35L14.05-35Q17.2-35 19.9-34.52 22.6-34.05 24.58-32.95 26.55-31.85 27.65-30.05 28.75-28.25 28.75-25.6L28.75-25.6Q28.75-23.15 27.58-21.4 26.4-19.65 24.3-18.6L24.3-18.6Q27.45-17.55 28.95-15.5 30.45-13.45 30.45-10.3L30.45-10.3Q30.45-4.95 26.55-2.27 22.65 0.4 14.6 0.4ZM15.9-15.6L10.35-15.6 10.35-5.05Q11.4-4.95 12.6-4.9 13.8-4.85 14.8-4.85L14.8-4.85Q16.75-4.85 18.43-5.1 20.1-5.35 21.33-5.98 22.55-6.6 23.28-7.65 24-8.7 24-10.35L24-10.35Q24-13.3 21.85-14.45 19.7-15.6 15.9-15.6L15.9-15.6ZM10.35-29.65L10.35-20.55 14.8-20.55Q18.4-20.55 20.45-21.58 22.5-22.6 22.5-25.25L22.5-25.25Q22.5-27.75 20.38-28.8 18.25-29.85 14.85-29.85L14.85-29.85Q13.4-29.85 12.28-29.8 11.15-29.75 10.35-29.65L10.35-29.65Z" opacity="1" transform="matrix(1,0,0,1,0,0)" fill="#ee3e38" class="wordmark-text-0" data-fill-palette-color="primary" id="text-0"></path></svg></g></svg></g></svg></g></svg></g></svg></g></svg></g></svg></g></svg></g><defs></defs></svg><rect width="395.52" height="247.2" fill="none" stroke="none" visibility="hidden"></rect></g></svg></g></svg>